<svg width="32" height="32" viewBox="0 0 32 32" fill="none" xmlns="http://www.w3.org/2000/svg">
  <path d="M16 4C9.373 4 4 9.373 4 16C4 22.627 9.373 28 16 28C22.627 28 28 22.627 28 16C28 9.373 22.627 4 16 4Z" fill="#FFCDD2"/>
  <path d="M12 13C13.1046 13 14 12.1046 14 11C14 9.89543 13.1046 9 12 9C10.8954 9 10 9.89543 10 11C10 12.1046 10.8954 13 12 13Z" fill="#D32F2F"/>
  <path d="M20 13C21.1046 13 22 12.1046 22 11C22 9.89543 21.1046 9 20 9C18.8954 9 18 9.89543 18 11C18 12.1046 18.8954 13 20 13Z" fill="#D32F2F"/>
  <path d="M10 17C10 19.7614 12.6863 22 16 22C19.3137 22 22 19.7614 22 17H10Z" fill="#D32F2F"/>
  <path d="M14 22C14 22 16 25 16 28" stroke="#D32F2F" stroke-width="2" stroke-linecap="round"/>
  <path d="M18 22C18 22 16 25 16 28" stroke="#D32F2F" stroke-width="2" stroke-linecap="round"/>
  <path d="M10 8.5C10 8.5 12 5 16 5C20 5 22 8.5 22 8.5" stroke="#D32F2F" stroke-width="2" stroke-linecap="round"/>
</svg> 