<?xml version="1.0" standalone="no"?>
<!DOCTYPE svg PUBLIC "-//W3C//DTD SVG 20010904//EN"
 "http://www.w3.org/TR/2001/REC-SVG-20010904/DTD/svg10.dtd">
<svg version="1.0" xmlns="http://www.w3.org/2000/svg"
 width="1024.000000pt" height="1024.000000pt" viewBox="0 0 1024.000000 1024.000000"
 preserveAspectRatio="xMidYMid meet">

<g transform="translate(0.000000,1024.000000) scale(0.100000,-0.100000)"
fill="#b91c1c" stroke="none">
<path d="M2617 8970 c-108 -19 -187 -94 -237 -226 -37 -99 -64 -132 -172 -216
-94 -72 -144 -137 -169 -219 -23 -75 -24 -106 -2 -182 33 -121 149 -207 333
-247 140 -31 189 -47 245 -79 108 -62 203 -168 280 -314 86 -161 136 -320 201
-632 71 -344 102 -459 169 -640 71 -190 181 -386 312 -559 60 -77 260 -278
336 -335 31 -24 57 -47 57 -52 0 -5 -23 -9 -50 -9 -110 0 -429 -44 -585 -80
-183 -43 -295 -103 -295 -159 0 -38 33 -77 88 -105 342 -172 1390 -302 2277
-283 535 12 831 62 1095 184 503 233 919 779 1065 1398 53 225 70 435 56 676
-37 596 -239 1047 -566 1264 -203 134 -428 193 -820 214 -215 12 -355 8 -960
-26 -1016 -57 -1481 -27 -1822 118 -167 70 -271 147 -398 292 -39 45 -91 99
-115 121 -86 77 -213 115 -323 96z m149 -169 c25 -11 67 -49 110 -97 177 -202
282 -286 459 -370 175 -83 361 -131 619 -161 187 -22 776 -21 1215 1 464 23
1178 18 1101 -8 -157 -52 -418 -242 -610 -443 -368 -384 -689 -950 -809 -1428
-55 -220 -66 -309 -65 -550 0 -216 2 -236 26 -327 32 -117 97 -254 155 -325
24 -29 42 -53 40 -53 -2 0 -59 15 -128 34 -437 121 -843 389 -1116 738 -214
273 -311 498 -413 958 -94 422 -139 579 -215 735 -104 216 -234 380 -376 471
-99 64 -171 91 -305 114 -179 30 -241 78 -231 178 6 56 37 100 106 147 127 89
185 160 216 267 19 67 47 105 89 124 43 18 84 17 132 -5z m4028 -717 c121 -31
259 -122 347 -230 188 -226 304 -612 316 -1044 6 -216 -4 -336 -43 -530 -121
-603 -547 -1146 -1058 -1350 -463 -185 -974 -94 -1222 218 -61 77 -129 218
-154 322 -28 110 -38 358 -21 496 56 455 279 962 620 1409 88 115 303 341 407
426 298 244 579 342 808 283z"/>
<path d="M3365 7190 c49 -49 92 -90 95 -90 2 0 -36 41 -85 90 -49 50 -92 90
-95 90 -2 0 36 -40 85 -90z"/>
<path d="M3510 7056 c0 -2 8 -10 18 -17 15 -13 16 -12 3 4 -13 16 -21 21 -21
13z"/>
<path d="M3560 7016 c0 -2 8 -10 18 -17 15 -13 16 -12 3 4 -13 16 -21 21 -21
13z"/>
<path d="M4768 6453 c7 -3 16 -2 19 1 4 3 -2 6 -13 5 -11 0 -14 -3 -6 -6z"/>
<path d="M6535 7886 c-285 -74 -616 -351 -903 -752 -341 -479 -546 -1084 -502
-1482 36 -326 213 -538 515 -614 78 -20 114 -23 265 -22 155 1 186 4 272 27
202 54 348 129 507 262 374 312 605 780 628 1267 7 155 -6 291 -43 468 -106
498 -221 723 -418 821 -64 31 -79 34 -170 36 -59 1 -122 -3 -151 -11z m-115
-1060 c0 -2 -7 -7 -16 -10 -8 -3 -12 -2 -9 4 6 10 25 14 25 6z m316 -58 l29
-33 -32 29 c-31 28 -38 36 -30 36 2 0 16 -15 33 -32z m-416 8 c0 -2 -8 -10
-17 -17 -16 -13 -17 -12 -4 4 13 16 21 21 21 13z m490 -120 c0 -12 -5 -7 -19
24 -11 24 -11 24 3 6 9 -11 16 -24 16 -30z m-216 -5 c52 -29 70 -65 74 -145 5
-84 -13 -157 -60 -249 -98 -195 -299 -270 -378 -142 -96 155 68 511 255 555
36 9 70 3 109 -19z m-394 5 c0 -2 -8 -10 -17 -17 -16 -13 -17 -12 -4 4 13 16
21 21 21 13z m637 -138 c-3 -8 -6 -5 -6 6 -1 11 2 17 5 13 3 -3 4 -12 1 -19z
m0 -75 c-3 -10 -5 -4 -5 12 0 17 2 24 5 18 2 -7 2 -21 0 -30z m-147 -357 c0
-2 -8 -10 -17 -17 -16 -13 -17 -12 -4 4 13 16 21 21 21 13z m-90 -89 c0 -2
-10 -12 -22 -23 l-23 -19 19 23 c18 21 26 27 26 19z m-247 -114 c-13 -2 -35
-2 -50 0 -16 2 -5 4 22 4 28 0 40 -2 28 -4z"/>
<path d="M7890 4241 c0 -4 37 -41 83 -81 45 -40 110 -102 144 -137 l62 -63
111 0 112 0 -23 38 c-13 22 -53 87 -88 145 l-64 107 -169 0 c-92 0 -168 -4
-168 -9z"/>
<path fill="#facc15" d="M1261 4045 l-3 -195 54 0 55 0 17 63 c10 34 29 77 42 95 40 52 70 62
189 62 l105 0 0 -542 c0 -623 3 -602 -80 -626 -25 -8 -51 -15 -57 -18 -9 -2
-13 -23 -13 -59 l0 -55 325 0 325 0 0 59 0 59 -37 6 c-21 4 -49 11 -63 17 -56
22 -55 8 -58 607 l-3 552 107 0 c76 0 115 -4 139 -16 51 -24 90 -87 109 -176
6 -26 10 -28 61 -28 l55 0 0 195 0 195 -633 0 -633 0 -3 -195z"/>
<path fill="#facc15" d="M2646 4224 c-8 -22 -7 -77 2 -90 4 -6 22 -15 39 -19 18 -3 42 -18 53
-32 19 -25 20 -40 20 -574 0 -386 -3 -555 -11 -573 -10 -22 -27 -32 -81 -50
-12 -4 -18 -16 -18 -38 0 -18 -3 -43 -6 -55 l-6 -23 276 0 276 0 0 59 0 58
-40 7 c-21 3 -48 16 -60 28 -19 21 -20 34 -20 348 0 301 1 328 18 343 34 31
96 50 162 51 89 0 136 -24 170 -90 l25 -48 0 -293 c0 -285 -1 -293 -21 -314
-12 -11 -37 -24 -55 -28 -33 -7 -34 -8 -37 -64 l-3 -57 276 0 275 0 0 59 0 59
-40 7 c-77 13 -77 13 -83 367 -5 327 -10 365 -55 454 -25 49 -90 110 -146 135
-31 14 -65 19 -137 19 -120 0 -187 -21 -281 -90 l-68 -50 0 255 0 255 -209 0
c-181 0 -210 -2 -215 -16z"/>
<path fill="#facc15" d="M6221 4225 c-317 -72 -528 -261 -602 -542 -27 -101 -30 -285 -6 -392
54 -241 219 -419 463 -499 214 -70 517 -44 767 65 l57 26 0 206 c0 239 7 264
76 288 53 18 55 22 48 76 l-7 47 -293 0 -294 0 0 -59 0 -59 37 -7 c55 -10 91
-32 108 -65 12 -23 15 -67 15 -199 l0 -169 -31 -11 c-46 -16 -205 -13 -273 4
-120 31 -205 106 -263 232 -44 96 -63 197 -63 336 0 141 19 230 70 333 49 101
130 181 217 215 82 32 225 33 304 1 96 -38 188 -155 205 -261 l7 -41 68 0 69
0 -2 196 -3 196 -65 24 c-135 50 -217 65 -385 70 -117 3 -177 0 -224 -11z"/>
<path fill="#facc15" d="M7300 4158 c-61 -32 -93 -80 -87 -135 12 -108 117 -162 224 -113 97
44 114 170 30 234 -50 38 -111 43 -167 14z"/>
<path d="M4420 3870 c-132 -21 -236 -76 -328 -174 -99 -106 -142 -223 -142
-386 0 -165 42 -278 144 -387 169 -182 483 -225 721 -100 126 67 235 212 264
355 15 75 13 227 -4 292 -50 188 -197 337 -380 384 -77 20 -205 27 -275 16z
m188 -149 c50 -26 76 -56 107 -123 43 -95 58 -186 52 -333 -8 -185 -35 -260
-119 -328 -29 -23 -51 -31 -92 -35 -81 -7 -122 5 -167 45 -80 72 -109 171
-109 370 0 151 11 215 50 293 46 92 102 130 188 130 32 0 67 -7 90 -19z"/>
<path d="M8205 3869 c-307 -32 -511 -284 -492 -604 18 -293 220 -490 528 -512
277 -19 517 152 585 418 22 83 22 226 0 308 -69 265 -319 423 -621 390z m192
-165 c47 -38 76 -88 106 -179 19 -60 22 -92 22 -220 0 -127 -3 -161 -22 -220
-38 -121 -111 -185 -212 -185 -170 0 -251 136 -251 422 0 183 26 279 94 357
44 50 76 62 153 59 62 -3 76 -7 110 -34z"/>
<path d="M7130 3785 c0 -41 4 -55 15 -55 27 0 63 -22 74 -47 7 -16 11 -141 11
-381 0 -390 0 -392 -57 -407 -44 -11 -53 -24 -53 -76 l0 -49 270 0 271 0 -3
58 -3 57 -44 6 c-85 11 -81 -11 -81 500 l0 449 -200 0 -200 0 0 -55z"/>
<path d="M2408 2229 c-16 -9 -18 -31 -18 -224 l0 -215 40 0 40 0 0 93 c0 115
5 134 42 153 27 14 32 14 54 -1 23 -15 24 -20 24 -130 l0 -115 40 0 40 0 0
115 c0 163 -21 206 -102 205 -18 -1 -44 -7 -58 -15 -14 -8 -29 -14 -33 -15 -5
0 -7 35 -6 78 2 75 2 77 -22 79 -13 2 -32 -2 -41 -8z"/>
<path d="M2766 2219 c-21 -31 -2 -69 35 -69 43 0 63 45 33 74 -22 22 -50 20
-68 -5z"/>
<path d="M3353 2232 l-33 -3 0 -220 0 -219 40 0 40 0 0 105 c0 102 1 107 26
130 31 29 43 30 70 11 16 -13 19 -29 22 -130 l4 -116 34 0 34 0 0 129 c0 125
-1 131 -26 160 -21 26 -33 31 -68 31 -23 0 -51 -7 -62 -15 -10 -8 -22 -15 -26
-15 -5 0 -8 33 -8 74 0 41 -3 76 -7 78 -5 2 -23 2 -40 0z"/>
<path d="M5440 2231 l-25 -7 -3 -218 -2 -217 40 3 40 3 4 103 c4 103 10 123
48 143 14 8 26 6 44 -6 23 -15 24 -20 24 -130 l0 -115 40 0 40 0 0 131 0 131
-29 29 c-24 23 -38 29 -73 29 -24 0 -53 -7 -64 -15 -10 -8 -22 -15 -26 -15 -5
0 -8 36 -8 80 0 84 0 85 -50 71z"/>
<path d="M7478 2229 c-21 -12 -24 -49 -6 -67 39 -39 100 17 63 58 -20 22 -32
24 -57 9z"/>
<path d="M2000 2185 l0 -35 65 0 65 0 0 -180 0 -180 45 0 45 0 0 180 0 180 60
0 60 0 0 35 0 35 -170 0 -170 0 0 -35z"/>
<path d="M5995 2211 c-57 -24 -73 -81 -41 -145 l23 -46 -38 -39 c-32 -32 -39
-45 -39 -79 0 -77 75 -131 163 -117 23 4 52 13 65 21 20 13 25 13 44 -1 13 -8
43 -15 70 -15 l48 0 -40 36 c-22 20 -40 41 -40 48 0 6 14 38 30 71 40 82 39
93 -9 93 l-38 1 -12 -55 c-7 -30 -16 -54 -20 -54 -9 0 -71 64 -71 74 0 4 13
18 28 31 16 13 34 41 41 63 11 33 11 43 -3 70 -9 17 -25 36 -35 42 -23 12 -97
12 -126 1z m88 -62 c24 -38 -27 -105 -59 -78 -17 14 -18 71 -2 87 16 16 48 11
61 -9z m-15 -230 c47 -52 48 -56 20 -65 -33 -10 -77 -7 -94 7 -20 17 -18 76 4
88 26 16 29 14 70 -30z"/>
<path d="M2968 2193 c-13 -3 -18 -15 -18 -43 0 -32 -4 -39 -22 -42 -18 -2 -23
-10 -23 -33 0 -23 5 -31 23 -33 21 -3 22 -8 22 -88 0 -109 15 -148 65 -164 20
-7 52 -9 71 -6 30 6 34 10 34 40 0 31 -2 32 -30 28 -50 -7 -60 10 -60 104 l0
84 45 0 c43 0 45 1 45 29 0 28 -3 30 -42 33 l-43 3 -3 48 c-3 49 -11 54 -64
40z"/>
<path d="M6513 2193 c-8 -2 -13 -22 -13 -44 0 -35 -2 -39 -26 -39 -23 0 -25
-3 -22 -32 2 -25 8 -34 26 -36 21 -3 22 -7 22 -101 0 -83 3 -102 20 -124 22
-28 70 -40 118 -31 28 6 32 10 32 40 0 32 -1 33 -36 27 -48 -8 -54 4 -54 104
l0 82 43 3 c38 3 42 5 43 31 1 25 -1 27 -42 27 l-44 0 0 50 c0 48 -1 50 -27
49 -16 0 -34 -3 -40 -6z"/>
<path d="M7341 2133 c-12 -14 -18 -29 -15 -34 3 -5 -7 -4 -21 1 -69 26 -155
-1 -190 -61 -28 -48 -28 -147 1 -185 37 -51 70 -68 128 -68 66 -1 101 21 134
84 29 57 28 105 -3 166 -29 58 -29 54 -12 54 19 0 47 33 39 46 -16 24 -41 23
-61 -3z m-51 -103 c25 -25 34 -61 27 -108 -12 -71 -86 -97 -127 -44 -30 37
-24 126 10 154 29 24 65 23 90 -2z"/>
<path d="M3744 2100 c-55 -22 -101 -118 -89 -184 17 -87 69 -129 158 -130 90
-1 144 39 102 74 -13 11 -22 10 -52 -4 -55 -26 -107 -7 -126 47 -6 15 3 17 98
17 57 0 106 4 109 9 3 5 1 33 -4 62 -14 76 -60 119 -127 118 -27 0 -57 -4 -69
-9z m110 -72 c33 -47 23 -57 -51 -53 -59 4 -68 7 -65 22 10 53 87 73 116 31z"/>
<path d="M4073 2094 c-42 -21 -71 -69 -79 -127 -15 -110 72 -200 177 -182 137
23 178 224 60 302 -41 28 -110 30 -158 7z m117 -62 c17 -14 24 -32 28 -73 5
-69 -21 -109 -72 -109 -50 0 -71 30 -71 102 0 51 4 63 24 79 29 24 62 24 91 1z"/>
<path d="M4541 2096 c-28 -15 -50 -52 -51 -82 0 -34 37 -71 89 -89 61 -20 79
-38 60 -61 -9 -11 -24 -14 -53 -10 -23 2 -52 6 -66 8 -21 2 -26 -2 -28 -24 -3
-23 2 -30 25 -39 53 -20 93 -22 137 -5 34 13 47 25 61 57 17 37 17 42 2 73
-12 26 -27 38 -64 51 -69 24 -78 30 -78 51 0 15 9 20 38 22 21 2 45 -2 53 -9
17 -14 28 -5 38 27 5 16 0 23 -19 32 -34 16 -114 15 -144 -2z"/>
<path d="M4824 2096 c-42 -18 -47 -29 -26 -53 15 -17 20 -18 42 -6 40 20 87
16 104 -9 21 -30 20 -38 -4 -38 -51 0 -125 -24 -147 -48 -77 -83 45 -201 143
-137 24 15 27 15 44 0 21 -19 81 -17 87 2 3 7 -5 20 -16 30 -18 15 -21 29 -21
105 0 98 -12 133 -51 154 -35 18 -114 18 -155 0z m131 -167 c12 -18 -5 -58
-31 -75 -36 -24 -77 -5 -72 33 4 40 84 73 103 42z"/>
<path d="M5190 2099 c-42 -17 -70 -51 -85 -104 -36 -122 50 -229 168 -211 23
4 53 15 66 25 24 18 24 20 7 45 -16 25 -18 26 -39 11 -30 -21 -69 -19 -101 6
-23 18 -26 28 -26 79 0 51 3 61 26 79 31 25 49 26 87 7 26 -14 28 -14 42 14
20 38 20 36 -16 49 -39 13 -95 13 -129 0z"/>
<path d="M7020 2093 c-17 -12 -25 -13 -28 -5 -2 7 -17 12 -33 12 l-29 0 0 -99
c0 -83 -3 -102 -20 -124 -14 -18 -28 -24 -47 -22 -44 5 -53 28 -53 142 l0 103
-41 0 -41 0 3 -131 4 -131 34 -30 c29 -26 39 -29 73 -25 22 3 50 15 63 27 l22
21 6 -20 c4 -16 13 -21 41 -21 l36 0 0 109 c0 94 3 112 20 134 12 14 27 24 34
21 9 -3 13 5 14 26 1 35 -19 40 -58 13z"/>
<path d="M2760 1945 l0 -155 40 0 40 0 0 155 0 155 -40 0 -40 0 0 -155z"/>
<path d="M7470 1945 l0 -155 35 0 35 0 0 155 0 155 -35 0 -35 0 0 -155z"/>
<path d="M2761 1736 c-16 -19 -4 -64 19 -71 38 -12 72 29 56 70 -7 19 -60 20
-75 1z"/>
<path d="M4882 1738 c-32 -32 8 -80 48 -58 24 13 26 33 4 54 -19 19 -36 20
-52 4z"/>
</g>
</svg>
