<svg width="40" height="40" viewBox="0 0 40 40" fill="none" xmlns="http://www.w3.org/2000/svg">
  <path d="M20 0C12.268 0 6 6.268 6 14C6 24.5 20 40 20 40C20 40 34 24.5 34 14C34 6.268 27.732 0 20 0Z" fill="#D32F2F"/>
  <circle cx="20" cy="14" r="7" fill="white"/>
  <path d="M23 10C21.8954 10 21 10.8954 21 12C21 13.1046 21.8954 14 23 14C24.1046 14 25 13.1046 25 12C25 10.8954 24.1046 10 23 10Z" fill="#D32F2F"/>
  <path d="M17 10C15.8954 10 15 10.8954 15 12C15 13.1046 15.8954 14 17 14C18.1046 14 19 13.1046 19 12C19 10.8954 18.1046 10 17 10Z" fill="#D32F2F"/>
  <path d="M15 17C15 18.6569 17.2386 20 20 20C22.7614 20 25 18.6569 25 17H15Z" fill="#D32F2F"/>
</svg> 